<svg width="512" height="512" viewBox="0 0 512 512" fill="none" xmlns="http://www.w3.org/2000/svg">
  <defs>
    <linearGradient id="g0a" x1="88" y1="88" x2="172" y2="172" gradientUnits="userSpaceOnUse"><stop stop-color="#504ec2"/><stop offset="1" stop-color="#4342a3"/></linearGradient><linearGradient id="g0b" x1="88" y1="88" x2="172" y2="172" gradientUnits="userSpaceOnUse"><stop stop-color="#3b8cd6"/><stop offset="1" stop-color="#3276b4"/></linearGradient><linearGradient id="g1a" x1="172" y1="88" x2="256" y2="172" gradientUnits="userSpaceOnUse"><stop stop-color="#d0605b"/><stop offset="1" stop-color="#af514c"/></linearGradient><linearGradient id="g1b" x1="172" y1="88" x2="256" y2="172" gradientUnits="userSpaceOnUse"><stop stop-color="#b9527f"/><stop offset="1" stop-color="#9b456b"/></linearGradient><linearGradient id="g2a" x1="256" y1="88" x2="340" y2="172" gradientUnits="userSpaceOnUse"><stop stop-color="#504ec2"/><stop offset="1" stop-color="#4342a3"/></linearGradient><linearGradient id="g2b" x1="256" y1="88" x2="340" y2="172" gradientUnits="userSpaceOnUse"><stop stop-color="#7552cf"/><stop offset="1" stop-color="#6245ae"/></linearGradient><linearGradient id="g3a" x1="340" y1="88" x2="424" y2="172" gradientUnits="userSpaceOnUse"><stop stop-color="#d0605b"/><stop offset="1" stop-color="#af514c"/></linearGradient><linearGradient id="g3b" x1="340" y1="88" x2="424" y2="172" gradientUnits="userSpaceOnUse"><stop stop-color="#d0605b"/><stop offset="1" stop-color="#af514c"/></linearGradient><linearGradient id="g4a" x1="88" y1="172" x2="172" y2="256" gradientUnits="userSpaceOnUse"><stop stop-color="#504ec2"/><stop offset="1" stop-color="#4342a3"/></linearGradient><linearGradient id="g4b" x1="88" y1="172" x2="172" y2="256" gradientUnits="userSpaceOnUse"><stop stop-color="#45a798"/><stop offset="1" stop-color="#3a8c80"/></linearGradient><linearGradient id="g5a" x1="172" y1="172" x2="256" y2="256" gradientUnits="userSpaceOnUse"><stop stop-color="#d0605b"/><stop offset="1" stop-color="#af514c"/></linearGradient><linearGradient id="g5b" x1="172" y1="172" x2="256" y2="256" gradientUnits="userSpaceOnUse"><stop stop-color="#249690"/><stop offset="1" stop-color="#1e7e79"/></linearGradient><linearGradient id="g6a" x1="256" y1="172" x2="340" y2="256" gradientUnits="userSpaceOnUse"><stop stop-color="#504ec2"/><stop offset="1" stop-color="#4342a3"/></linearGradient><linearGradient id="g6b" x1="256" y1="172" x2="340" y2="256" gradientUnits="userSpaceOnUse"><stop stop-color="#c98b2a"/><stop offset="1" stop-color="#a97523"/></linearGradient><linearGradient id="g7a" x1="340" y1="172" x2="424" y2="256" gradientUnits="userSpaceOnUse"><stop stop-color="#d0605b"/><stop offset="1" stop-color="#af514c"/></linearGradient><linearGradient id="g7b" x1="340" y1="172" x2="424" y2="256" gradientUnits="userSpaceOnUse"><stop stop-color="#504ec2"/><stop offset="1" stop-color="#4342a3"/></linearGradient><linearGradient id="g8a" x1="88" y1="256" x2="172" y2="340" gradientUnits="userSpaceOnUse"><stop stop-color="#504ec2"/><stop offset="1" stop-color="#4342a3"/></linearGradient><linearGradient id="g8b" x1="88" y1="256" x2="172" y2="340" gradientUnits="userSpaceOnUse"><stop stop-color="#3b8cd6"/><stop offset="1" stop-color="#3276b4"/></linearGradient><linearGradient id="g9a" x1="172" y1="256" x2="256" y2="340" gradientUnits="userSpaceOnUse"><stop stop-color="#d0605b"/><stop offset="1" stop-color="#af514c"/></linearGradient><linearGradient id="g9b" x1="172" y1="256" x2="256" y2="340" gradientUnits="userSpaceOnUse"><stop stop-color="#b9527f"/><stop offset="1" stop-color="#9b456b"/></linearGradient><linearGradient id="g10a" x1="256" y1="256" x2="340" y2="340" gradientUnits="userSpaceOnUse"><stop stop-color="#504ec2"/><stop offset="1" stop-color="#4342a3"/></linearGradient><linearGradient id="g10b" x1="256" y1="256" x2="340" y2="340" gradientUnits="userSpaceOnUse"><stop stop-color="#7552cf"/><stop offset="1" stop-color="#6245ae"/></linearGradient><linearGradient id="g11a" x1="340" y1="256" x2="424" y2="340" gradientUnits="userSpaceOnUse"><stop stop-color="#d0605b"/><stop offset="1" stop-color="#af514c"/></linearGradient><linearGradient id="g11b" x1="340" y1="256" x2="424" y2="340" gradientUnits="userSpaceOnUse"><stop stop-color="#d0605b"/><stop offset="1" stop-color="#af514c"/></linearGradient><linearGradient id="g12a" x1="88" y1="340" x2="172" y2="424" gradientUnits="userSpaceOnUse"><stop stop-color="#504ec2"/><stop offset="1" stop-color="#4342a3"/></linearGradient><linearGradient id="g12b" x1="88" y1="340" x2="172" y2="424" gradientUnits="userSpaceOnUse"><stop stop-color="#45a798"/><stop offset="1" stop-color="#3a8c80"/></linearGradient><linearGradient id="g13a" x1="172" y1="340" x2="256" y2="424" gradientUnits="userSpaceOnUse"><stop stop-color="#d0605b"/><stop offset="1" stop-color="#af514c"/></linearGradient><linearGradient id="g13b" x1="172" y1="340" x2="256" y2="424" gradientUnits="userSpaceOnUse"><stop stop-color="#249690"/><stop offset="1" stop-color="#1e7e79"/></linearGradient><linearGradient id="g14a" x1="256" y1="340" x2="340" y2="424" gradientUnits="userSpaceOnUse"><stop stop-color="#504ec2"/><stop offset="1" stop-color="#4342a3"/></linearGradient><linearGradient id="g14b" x1="256" y1="340" x2="340" y2="424" gradientUnits="userSpaceOnUse"><stop stop-color="#c98b2a"/><stop offset="1" stop-color="#a97523"/></linearGradient><linearGradient id="g15a" x1="340" y1="340" x2="424" y2="424" gradientUnits="userSpaceOnUse"><stop stop-color="#d0605b"/><stop offset="1" stop-color="#af514c"/></linearGradient><linearGradient id="g15b" x1="340" y1="340" x2="424" y2="424" gradientUnits="userSpaceOnUse"><stop stop-color="#504ec2"/><stop offset="1" stop-color="#4342a3"/></linearGradient>
    <clipPath id="kclip"><path d="M140 120 H218 V236 L322 120 H420 L286 268 L426 392 H322 L218 300 V392 H140 Z"/></clipPath>
  </defs>
  <rect width="512" height="512" rx="116" fill="#121324"/>
  <g clip-path="url(#kclip)">
    <rect x="88" y="88" width="336" height="336" fill="#1a1c30"/>
    <path d="M88 88 L172 88 L172 172 Z" fill="url(#g0a)"/><path d="M88 88 L172 172 L88 172 Z" fill="url(#g0b)"/><path d="M172 88 L256 88 L172 172 Z" fill="url(#g1a)"/><path d="M256 88 L256 172 L172 172 Z" fill="url(#g1b)"/><path d="M256 88 L340 88 L340 172 Z" fill="url(#g2a)"/><path d="M256 88 L340 172 L256 172 Z" fill="url(#g2b)"/><path d="M340 88 L424 88 L340 172 Z" fill="url(#g3a)"/><path d="M424 88 L424 172 L340 172 Z" fill="url(#g3b)"/><path d="M88 172 L172 172 L88 256 Z" fill="url(#g4a)"/><path d="M172 172 L172 256 L88 256 Z" fill="url(#g4b)"/><path d="M172 172 L256 172 L256 256 Z" fill="url(#g5a)"/><path d="M172 172 L256 256 L172 256 Z" fill="url(#g5b)"/><path d="M256 172 L340 172 L256 256 Z" fill="url(#g6a)"/><path d="M340 172 L340 256 L256 256 Z" fill="url(#g6b)"/><path d="M340 172 L424 172 L424 256 Z" fill="url(#g7a)"/><path d="M340 172 L424 256 L340 256 Z" fill="url(#g7b)"/><path d="M88 256 L172 256 L172 340 Z" fill="url(#g8a)"/><path d="M88 256 L172 340 L88 340 Z" fill="url(#g8b)"/><path d="M172 256 L256 256 L172 340 Z" fill="url(#g9a)"/><path d="M256 256 L256 340 L172 340 Z" fill="url(#g9b)"/><path d="M256 256 L340 256 L340 340 Z" fill="url(#g10a)"/><path d="M256 256 L340 340 L256 340 Z" fill="url(#g10b)"/><path d="M340 256 L424 256 L340 340 Z" fill="url(#g11a)"/><path d="M424 256 L424 340 L340 340 Z" fill="url(#g11b)"/><path d="M88 340 L172 340 L88 424 Z" fill="url(#g12a)"/><path d="M172 340 L172 424 L88 424 Z" fill="url(#g12b)"/><path d="M172 340 L256 340 L256 424 Z" fill="url(#g13a)"/><path d="M172 340 L256 424 L172 424 Z" fill="url(#g13b)"/><path d="M256 340 L340 340 L256 424 Z" fill="url(#g14a)"/><path d="M340 340 L340 424 L256 424 Z" fill="url(#g14b)"/><path d="M340 340 L424 340 L424 424 Z" fill="url(#g15a)"/><path d="M340 340 L424 424 L340 424 Z" fill="url(#g15b)"/>
    <line x1="88" y1="88" x2="172" y2="172" stroke="#F3EAD6" stroke-opacity="0.5" stroke-width="4.5" stroke-dasharray="15 12" stroke-linecap="round"/><line x1="256" y1="88" x2="172" y2="172" stroke="#F3EAD6" stroke-opacity="0.5" stroke-width="4.5" stroke-dasharray="15 12" stroke-linecap="round"/><line x1="256" y1="88" x2="340" y2="172" stroke="#F3EAD6" stroke-opacity="0.5" stroke-width="4.5" stroke-dasharray="15 12" stroke-linecap="round"/><line x1="424" y1="88" x2="340" y2="172" stroke="#F3EAD6" stroke-opacity="0.5" stroke-width="4.5" stroke-dasharray="15 12" stroke-linecap="round"/><line x1="172" y1="172" x2="88" y2="256" stroke="#F3EAD6" stroke-opacity="0.5" stroke-width="4.5" stroke-dasharray="15 12" stroke-linecap="round"/><line x1="172" y1="172" x2="256" y2="256" stroke="#F3EAD6" stroke-opacity="0.5" stroke-width="4.5" stroke-dasharray="15 12" stroke-linecap="round"/><line x1="340" y1="172" x2="256" y2="256" stroke="#F3EAD6" stroke-opacity="0.5" stroke-width="4.5" stroke-dasharray="15 12" stroke-linecap="round"/><line x1="340" y1="172" x2="424" y2="256" stroke="#F3EAD6" stroke-opacity="0.5" stroke-width="4.5" stroke-dasharray="15 12" stroke-linecap="round"/><line x1="88" y1="256" x2="172" y2="340" stroke="#F3EAD6" stroke-opacity="0.5" stroke-width="4.5" stroke-dasharray="15 12" stroke-linecap="round"/><line x1="256" y1="256" x2="172" y2="340" stroke="#F3EAD6" stroke-opacity="0.5" stroke-width="4.5" stroke-dasharray="15 12" stroke-linecap="round"/><line x1="256" y1="256" x2="340" y2="340" stroke="#F3EAD6" stroke-opacity="0.5" stroke-width="4.5" stroke-dasharray="15 12" stroke-linecap="round"/><line x1="424" y1="256" x2="340" y2="340" stroke="#F3EAD6" stroke-opacity="0.5" stroke-width="4.5" stroke-dasharray="15 12" stroke-linecap="round"/><line x1="172" y1="340" x2="88" y2="424" stroke="#F3EAD6" stroke-opacity="0.5" stroke-width="4.5" stroke-dasharray="15 12" stroke-linecap="round"/><line x1="172" y1="340" x2="256" y2="424" stroke="#F3EAD6" stroke-opacity="0.5" stroke-width="4.5" stroke-dasharray="15 12" stroke-linecap="round"/><line x1="340" y1="340" x2="256" y2="424" stroke="#F3EAD6" stroke-opacity="0.5" stroke-width="4.5" stroke-dasharray="15 12" stroke-linecap="round"/><line x1="340" y1="340" x2="424" y2="424" stroke="#F3EAD6" stroke-opacity="0.5" stroke-width="4.5" stroke-dasharray="15 12" stroke-linecap="round"/><line x1="88" y1="88" x2="88" y2="424" stroke="#F3EAD6" stroke-opacity="0.5" stroke-width="4.5" stroke-dasharray="15 12" stroke-linecap="round"/><line x1="88" y1="88" x2="424" y2="88" stroke="#F3EAD6" stroke-opacity="0.5" stroke-width="4.5" stroke-dasharray="15 12" stroke-linecap="round"/><line x1="172" y1="88" x2="172" y2="424" stroke="#F3EAD6" stroke-opacity="0.5" stroke-width="4.5" stroke-dasharray="15 12" stroke-linecap="round"/><line x1="88" y1="172" x2="424" y2="172" stroke="#F3EAD6" stroke-opacity="0.5" stroke-width="4.5" stroke-dasharray="15 12" stroke-linecap="round"/><line x1="256" y1="88" x2="256" y2="424" stroke="#F3EAD6" stroke-opacity="0.5" stroke-width="4.5" stroke-dasharray="15 12" stroke-linecap="round"/><line x1="88" y1="256" x2="424" y2="256" stroke="#F3EAD6" stroke-opacity="0.5" stroke-width="4.5" stroke-dasharray="15 12" stroke-linecap="round"/><line x1="340" y1="88" x2="340" y2="424" stroke="#F3EAD6" stroke-opacity="0.5" stroke-width="4.5" stroke-dasharray="15 12" stroke-linecap="round"/><line x1="88" y1="340" x2="424" y2="340" stroke="#F3EAD6" stroke-opacity="0.5" stroke-width="4.5" stroke-dasharray="15 12" stroke-linecap="round"/><line x1="424" y1="88" x2="424" y2="424" stroke="#F3EAD6" stroke-opacity="0.5" stroke-width="4.5" stroke-dasharray="15 12" stroke-linecap="round"/><line x1="88" y1="424" x2="424" y2="424" stroke="#F3EAD6" stroke-opacity="0.5" stroke-width="4.5" stroke-dasharray="15 12" stroke-linecap="round"/>
  </g>
  <path d="M140 120 H218 V236 L322 120 H420 L286 268 L426 392 H322 L218 300 V392 H140 Z" fill="none" stroke="#F3EAD6" stroke-opacity="0.85" stroke-width="6" stroke-dasharray="13 10" stroke-linecap="round"/>
</svg>
